#!OML:ASF E:\id_vita\Project 1\Capture day 1\Session 1\Female.ASF
:FULLY-SPECIFIED
:DEGREES
876
root 10.9644 13.4641 -0.414717 -142.762 -81.4015 -160.635
lowerback 0.709042 4.05442 -8.17267
upperback -0.632034 5.2933 -1.10495
thorax -1.68685 2.72102 3.26699
lowerneck 6.64083 -0.92454 2.91883
upperneck 7.70518 -1.32107 1.42694
head 1.27 -0.639481 -0.0307745
rclavicle -7.15625e-015 -8.34896e-015
rhumerus 13.1443 21.4599 -72.1532
rradius 34.4499
rwrist 25.0365
rhand -43.5703 620.79
rfingers 7.12502
rthumb -16.4075 69.8841
lclavicle -7.15625e-015 -8.34896e-015
lhumerus 13.4185 -36.0628 76.3877
lradius 44.2486
lwrist -22.9028
lhand -60.8611 -100.357
lfingers 7.12502
lthumb -32.9712 -847.363
rfemur -76.0655 -3.06055 22.1713
rtibia 100.036
rfoot -16.1393 0.900143
rtoes -7.07993
lfemur -68.6502 0.711237 -27.881
ltibia 80.6738
lfoot -32.5236 -2.70612
ltoes -15.3463
877
root 10.8739 13.4758 -0.419273 -143.949 -81.5751 -160.001
lowerback 1.12879 4.04616 -7.95567
upperback -0.445413 5.25372 -1.00019
thorax -1.71388 2.69492 3.23453
lowerneck 6.60289 -0.891638 2.88414
upperneck 7.725 -1.28665 1.51773
head 1.28347 -0.622413 0.00216014
rclavicle -3.65764e-014 2.5842e-014
rhumerus 13.1869 21.2498 -72.3843
rradius 34.2514
rwrist 25.308
rhand -41.9447 621.737
rfingers 7.12502
rthumb -14.8419 68.815
lclavicle -3.65764e-014 2.5842e-014
lhumerus 13.4535 -36.0429 76.3093
lradius 44.3255
lwrist -22.7264
lhand -60.7816 -101.105
lfingers 7.12502
lthumb -32.8956 -848.128
rfemur -76.6381 -2.98883 22.3806
rtibia 100.68
rfoot -16.7371 0.206257
rtoes -7.80139
lfemur -67.5317 0.824744 -27.7283
ltibia 80.3854
lfoot -32.4953 -2.88105
ltoes -14.6912
878
root 10.8118 13.4784 -0.418779 -143.316 -81.7864 -160.487
lowerback 0.997121 4.01522 -7.8656
upperback -0.474556 5.22719 -0.950886
thorax -1.66357 2.68093 3.24607
lowerneck 6.61277 -0.961837 2.7905
upperneck 7.73484 -1.39264 1.69075
head 1.28614 -0.675626 0.0714786
rclavicle -2.70347e-014 1.82882e-014
rhumerus 13.1767 21.0195 -72.3256
rradius 34.1792
rwrist 25.4133
rhand -42.4683 620.644
rfingers 7.12502
rthumb -15.3463 69.9453
lclavicle -2.70347e-014 1.82882e-014
lhumerus 13.4959 -36.1263 76.4599
lradius 44.2702
lwrist -22.7724
lhand -61.0434 -100.827
lfingers 7.12502
lthumb -33.1446 -847.797
rfemur -78.2711 -2.97834 22.493
rtibia 101.392
rfoot -17.5013 -0.887452
rtoes -11.4399
lfemur -67.4925 0.748984 -27.7591
ltibia 80.2231
lfoot -32.1856 -3.48185
ltoes -13.2916
879
root 10.7271 13.4764 -0.419784 -144.09 -81.5449 -160.035
lowerback 1.10644 4.13456 -7.90261
upperback -0.344382 5.38085 -0.933891
thorax -1.61264 2.75227 3.27392
lowerneck 6.08027 -1.03963 3.02565
upperneck 8.40187 -1.51428 1.38621
head 1.58182 -0.722263 -0.0664686
rclavicle -4.65156e-014 4.96962e-014
rhumerus 13.2345 20.7974 -72.2697
rradius 34.0665
rwrist 25.7175
rhand -41.9602 622.358
rfingers 7.12502
rthumb -14.8568 68.1946
lclavicle -4.65156e-014 4.96962e-014
lhumerus 13.3666 -36.0367 76.7088
lradius 44.305
lwrist -22.8987
lhand -61.1267 -100.871
lfingers 7.12502
lthumb -33.2238 -847.824
rfemur -79.1398 -2.59096 22.3788
rtibia 101.981
rfoot -17.6633 -1.14418
rtoes -10.9047
lfemur -66.6192 1.08857 -27.9085
ltibia 79.9209
lfoot -32.0922 -3.45235
ltoes -14.4464
880
root 10.654 13.4791 -0.428398 -145.262 -81.5948 -159.009
lowerback 1.27009 4.11766 -7.78565
upperback -0.341114 5.34567 -0.873538
thorax -1.69192 2.73664 3.26101
lowerneck 6.54018 -0.9553 2.68902
upperneck 7.96287 -1.41149 1.83784
head 1.37178 -0.684454 0.132216
rclavicle -3.97569e-016 -5.4467e-014
rhumerus 13.3161 20.6504 -72.401
rradius 33.9425
rwrist 25.9348
rhand -41.7946 620.873
rfingers 7.12502
rthumb -14.6973 69.6676
lclavicle -3.97569e-016 -5.4467e-014
lhumerus 13.1372 -35.7694 76.9176
lradius 44.2244
lwrist -23.2384
lhand -60.8894 -101.506
lfingers 7.12502
lthumb -32.9982 -848.507
rfemur -80.222 -2.23464 22.5472
rtibia 102.531
rfoot -17.704 -1.47402
rtoes -10.0564
lfemur -66.0173 1.29124 -27.7372
ltibia 79.6643
lfoot -31.8142 -3.64422
ltoes -15.6548
881
root 10.5796 13.4761 -0.429135 -146.395 -81.5817 -157.784
lowerback 1.01631 4.15261 -7.67843
upperback -0.363254 5.41986 -0.794775
thorax -1.57868 2.7711 3.29854
lowerneck 6.67768 -1.0101 2.52877
upperneck 7.86182 -1.49527 2.06314
head 1.31996 -0.730353 0.229422
rclavicle 2.26615e-014 -4.25399e-014
rhumerus 13.2901 20.4688 -72.4727
rradius 33.7569
rwrist 26.0215
rhand -42.1514 620.113
rfingers 7.12502
rthumb -15.041 70.4538
lclavicle 2.26615e-014 -4.25399e-014
lhumerus 13.0825 -35.956 77.0873
lradius 43.9562
lwrist -22.7283
lhand -61.1462 -103.46
lfingers 7.12502
lthumb -33.2423 -850.409
rfemur -81.634 -1.85757 22.6785
rtibia 103.044
rfoot -17.7177 -1.63359
rtoes -8.9043
lfemur -65.7177 1.45113 -27.6121
ltibia 79.4322
lfoot -31.5654 -3.98261
ltoes -14.988
882
root 10.4992 13.4798 -0.427737 -145.975 -81.7208 -158.653
lowerback 1.45775 4.14151 -7.68645
upperback -0.236136 5.36886 -0.706838
thorax -1.69779 2.74568 3.36718
lowerneck 6.50397 -1.08981 2.46584
upperneck 8.04729 -1.61106 1.96716
head 1.40655 -0.786213 0.209488
rclavicle -3.4191e-014 -3.97569e-016
rhumerus 13.3761 20.437 -72.4223
rradius 33.5189
rwrist 25.9876
rhand -42.3507 619.932
rfingers 7.12502
rthumb -15.233 70.6488
lclavicle -3.4191e-014 -3.97569e-016
lhumerus 13.1103 -36.6888 77.0105
lradius 43.9201
lwrist -20.5274
lhand -62.1319 -106.818
lfingers 7.12502
lthumb -34.179 -853.561
rfemur -82.3178 -1.80621 22.5609
rtibia 103.521
rfoot -18.0984 -1.93371
rtoes -9.31966
lfemur -64.7139 1.43638 -27.732
ltibia 79.0591
lfoot -31.5738 -4.14742
ltoes -14.3146
883
root 10.428 13.4656 -0.43826 -145.733 -81.7016 -158.741
lowerback 1.13043 4.10484 -7.86924
upperback -0.254199 5.34839 -0.657883
thorax -1.5522 2.73354 3.5436
lowerneck 6.51771 -1.08853 2.54197
upperneck 8.03529 -1.60218 1.91361
head 1.39949 -0.780714 0.180601
rclavicle 3.93594e-014 1.66979e-014
rhumerus 13.5037 20.5534 -72.3768
rradius 33.4037
rwrist 25.8019
rhand -42.371 620.214
rfingers 7.12502
rthumb -15.2525 70.3683
lclavicle 3.93594e-014 1.66979e-014
lhumerus 12.9775 -36.5497 77.1848
lradius 44.0308
lwrist -20.5928
lhand -61.4877 -108.385
lfingers 7.12502
lthumb -33.5669 -855.264
rfemur -83.5969 -1.40372 22.4302
rtibia 104.038
rfoot -19.9913 -3.05806
rtoes -14.1552
lfemur -64.5323 1.62452 -27.9393
ltibia 78.7865
lfoot -31.4851 -3.94993
ltoes -15.0693
884
root 10.3415 13.4745 -0.441854 -146.832 -81.709 -157.784
lowerback 1.04244 4.13833 -7.7826
upperback -0.198939 5.40603 -0.610379
thorax -1.44898 2.75702 3.55182
lowerneck 6.58158 -1.10061 2.59104
upperneck 8.08318 -1.62959 2.12135
head 1.40595 -0.792124 0.237002
rclavicle -2.70347e-014 1.11319e-014
rhumerus 13.4582 20.4142 -72.4742
rradius 33.3214
rwrist 26.0938
rhand -42.7242 620.37
rfingers 7.12502
rthumb -15.5928 70.2388
lclavicle -2.70347e-014 1.11319e-014
lhumerus 12.8587 -36.5213 77.4137
lradius 43.8903
lwrist -20.3286
lhand -62.0648 -106.936
lfingers 7.12502
lthumb -34.1153 -853.694
rfemur -84.8329 -1.0601 22.7359
rtibia 104.458
rfoot -18.6259 -2.6104
rtoes -9.96267
lfemur -63.8395 1.86682 -27.9866
ltibia 78.3399
lfoot -31.3358 -3.1707
ltoes -17.8581
885
root 10.2699 13.4685 -0.445292 -148.123 -82.0323 -156.816
lowerback 1.3833 4.06245 -7.39978
upperback -0.149867 5.28228 -0.537978
thorax -1.54633 2.69425 3.39836
lowerneck 6.15368 -1.14487 2.71335
upperneck 8.74008 -1.71706 1.91343
head 1.68386 -0.824603 0.148225
rclavicle -7.91163e-014 -7.95139e-015
rhumerus 13.3881 20.3584 -72.6811
rradius 33.266
rwrist 26.3469
rhand -42.5033 620.322
rfingers 7.12502
rthumb -15.3799 70.2703
lclavicle -7.91163e-014 -7.95139e-015
lhumerus 12.6762 -35.4182 77.8056
lradius 43.7245
lwrist -22.6773
lhand -61.3319 -104.416
lfingers 7.12502
lthumb -33.4188 -851.327
rfemur -85.2807 -0.878652 22.7351
rtibia 104.643
rfoot -19.828 -3.14502
rtoes -11.4215
lfemur -63.024 1.82642 -27.6494
ltibia 78.0927
lfoot -31.2741 -2.97614
ltoes -18.6112
